<svg width="50" height="50" viewBox="0 0 50 50" fill="none" xmlns="http://www.w3.org/2000/svg">
<path d="M22.5383 47.2802L9.88222 40.0919C8.31796 39.2035 7.35156 37.5432 7.35156 35.7443V13.6107C7.35156 11.8225 8.30654 10.1704 9.8561 9.27796L22.5123 1.98853C24.0466 1.10489 25.9337 1.0985 27.4738 1.97171L40.3709 9.2838C41.937 10.1717 42.9048 11.833 42.9048 13.6334V35.7217C42.9048 37.5327 41.9256 39.2021 40.3448 40.0859L27.4476 47.2967C25.9209 48.1503 24.0592 48.144 22.5383 47.2802Z" fill="#E75D3E"/>
<path d="M24.0132 18.2445L12.2716 11.4855C11.6095 11.1043 11.6021 10.1515 12.2581 9.76005L24.0188 2.74274C24.6436 2.37 25.4214 2.36585 26.05 2.73191L37.6966 9.51365C38.3542 9.89658 38.3602 10.8445 37.7074 11.2356L26.0389 18.2268C25.4168 18.5996 24.6417 18.6063 24.0132 18.2445Z" fill="#FFB152"/>
<path d="M9.88222 40.0913L22.5383 47.2796C23.3129 47.7196 24.176 47.9371 25.0382 47.9318V23.6349C25.0382 22.2104 24.2806 20.8933 23.0491 20.1771L7.88678 11.3594C7.54054 12.0461 7.35156 12.8146 7.35156 13.6101V35.7437C7.35156 37.5426 8.31796 39.2029 9.88222 40.0913Z" fill="#C43F22"/>
<path d="M20.0396 35.1835C20.8284 35.0977 20.3897 33.744 20.3897 33.744L19.7181 32.0849L17.7862 32.3287L18.7521 34.7388C19.7364 35.3661 20.0396 35.1835 20.0396 35.1835Z" fill="white"/>
<path d="M18.088 28.0103C17.5243 26.6818 17.0149 26.3944 17.0149 26.3944L14.4855 25.0532C15.238 25.5618 15.6505 26.8433 15.6505 26.8433L16.7265 29.6718L16.0993 29.7222L17.1684 30.4759L18.2368 31.2291L18.6859 30.354L19.1357 29.4797L18.7017 29.5143L18.088 28.0103Z" fill="white"/>
<path d="M10.7245 30.1375L12.0067 33.2876C11.7086 32.3399 12.3091 31.7183 12.3091 31.7183L13.4832 30.1492L14.0927 30.8921L13.6924 29.5415L13.293 28.1915L12.2173 27.7441L11.1416 27.2969L11.5632 27.8104L10.9773 28.695C10.4791 29.501 10.7245 30.1375 10.7245 30.1375Z" fill="white"/>
<path d="M13.3887 34.8164L14.7208 35.5496L14.7624 33.0413L12.8297 31.9665C12.2406 32.5524 12.3426 33.0787 12.3426 33.0787C12.3156 34.0908 13.3887 34.8164 13.3887 34.8164Z" fill="white"/>
<path d="M12.4902 26.136L14.3958 28.4705L15.4103 27.1461C15.0234 25.9101 14.612 25.5518 14.612 25.5518C13.8445 24.5984 13.1832 25.2162 13.1832 25.2162L12.4902 26.136Z" fill="white"/>
<path d="M18.038 37.3116C19.105 37.8059 19.3601 37.4425 19.3601 37.4425L20.5588 35.557C20.117 36.0201 19.0958 35.3838 19.0958 35.3838L16.8309 34.1795V33.3717L16.1794 34.0025L15.5276 34.6329L16.1794 35.9566L16.8309 37.2804V36.7214L18.038 37.3116Z" fill="white"/>
<path d="M32.1573 35.9448L29.8692 37.276C29.2537 37.6342 28.875 38.2926 28.875 39.0047V40.3768C28.875 41.139 29.6935 41.621 30.36 41.2513L32.6302 39.9922C33.2658 39.6397 33.6602 38.9701 33.6602 38.2432V36.8091C33.6602 36.0378 32.8239 35.5569 32.1573 35.9448Z" fill="#A82B0F"/>
<path d="M39.7605 35.7615L39.7097 35.7905C38.5924 36.4279 37.2031 35.6211 37.2031 34.3347C37.2031 33.4076 37.7243 32.5499 38.5417 32.1123C39.6578 31.5149 41.0283 32.3126 41.0283 33.5785C41.0283 34.4811 40.5444 35.3143 39.7605 35.7615Z" fill="#A82B0F"/>
<path d="M28.9453 31.9229V26.2414C28.9453 25.1682 29.5186 24.1767 30.4487 23.6414L38.7472 18.8647C39.4139 18.481 40.2461 18.9622 40.2461 19.7314V25.1229C40.2461 26.1685 39.7017 27.1386 38.8092 27.6834L30.4664 32.7764C29.8 33.1832 28.9453 32.7036 28.9453 31.9229Z" fill="#46AFDF"/>
<g opacity="0.5">
<path d="M31.1494 32.6472L33.3897 21.2522L36.3885 19.7891L34.0999 31.33L31.1494 32.6472Z" fill="white"/>
<path d="M30.1554 33.424L32.6876 21.4448L28.5482 24.0256L28.207 30.6483L28.7927 33.424H30.1554Z" fill="white"/>
</g>
<path d="M28.1953 26.2414V31.9229C28.1953 33.2892 29.691 34.1285 30.8571 33.4166L39.2 28.3236C40.3156 27.6426 40.9961 26.4299 40.9961 25.1229V19.7314C40.9961 18.3853 39.5397 17.5432 38.3731 18.2147L30.0746 22.9914C28.9119 23.6606 28.1953 24.8999 28.1953 26.2414Z" stroke="#FCFFFD" stroke-width="1.5"/>
</svg>
