<svg id="Layer_1" data-name="Layer 1" xmlns="http://www.w3.org/2000/svg" viewBox="0 0 468 424"><path d="M131.87,319.4c-1.29,8-7.8,12.12-11.42,7.07-7.81-10.88-11-32.89-8.29-49.63,2.94-18.31,12-24.63,23-25,4-.14,6.71,5.2,5.72,11.34Z" style="fill:#d19386"/><path d="M237.07,281.61,104.57,176.75c-16.47-13-10.82-39.3,9.55-44.41L282.44,90.13a25.33,25.33,0,0,1,22.92,5.59L435.42,210.59c15.74,13.91,8.68,39.83-11.94,43.83L257.6,286.61A25.29,25.29,0,0,1,237.07,281.61Z" style="fill:#474443"/><path d="M138.37,198.59l-21.93,121.7C110.12,361,137.21,399,177,405.16l81.37,12.63a72,72,0,0,0,54.23-13.7l17.54-13.16a75.5,75.5,0,0,0,29.16-48.85l9.57-80.15" style="fill:#e9ad9b"/><circle cx="439.5" cy="302.5" r="15.5" style="fill:#f8b44e"/><path d="M189.23,266.79a5,5,0,0,1-.9,8.87A50.33,50.33,0,0,1,166,279a50.35,50.35,0,0,1-21.21-7.74,5,5,0,0,1,.9-8.87A50.33,50.33,0,0,1,168,259.05,50.35,50.35,0,0,1,189.23,266.79Z" style="fill:#d19386"/><path d="M279.23,275.79a5,5,0,0,1-.9,8.87,46,46,0,0,1-43.56-4.45,5,5,0,0,1,.9-8.87,46,46,0,0,1,43.56,4.45Z" style="fill:#d19386"/><path d="M188.23,273.79a5,5,0,0,1-.9,8.87A50.33,50.33,0,0,1,165,286a50.35,50.35,0,0,1-21.21-7.74,5,5,0,0,1,.9-8.87A50.33,50.33,0,0,1,167,266.05,50.35,50.35,0,0,1,188.23,273.79Z" style="fill:#fff"/><path d="M278.23,283.79a5,5,0,0,1-.9,8.87,46,46,0,0,1-43.56-4.45,5,5,0,0,1,.9-8.87,46,46,0,0,1,43.56,4.45Z" style="fill:#fff"/><circle cx="165" cy="271" r="5" style="fill:#353535"/><path d="M357.88,279h0a456.7,456.7,0,0,0-214-33.77l-2.92.25a15.57,15.57,0,0,1-16.67-17.9L133,171.73a15.57,15.57,0,0,1,14.64-13.16l25.29-1.2a456.61,456.61,0,0,1,178.7,27.35l26.28,9.62a15.56,15.56,0,0,1,10,17L379.26,267A15.56,15.56,0,0,1,357.88,279Z" style="fill:#757475"/><circle cx="256" cy="281" r="5" style="fill:#353535"/><path d="M259.44,240.46s20-2.24,30.71,6.64" style="fill:none;stroke:#353535;stroke-linecap:round;stroke-miterlimit:10;stroke-width:8px"/><path d="M201,369.77s-13.66,3.91-16.6-2" style="fill:none;stroke:#353535;stroke-linecap:round;stroke-miterlimit:10;stroke-width:6px"/><path d="M148,236s16-9,33.15.1" style="fill:none;stroke:#353535;stroke-linecap:round;stroke-miterlimit:10;stroke-width:8px"/><ellipse cx="199" cy="322" rx="10" ry="18" transform="translate(-145.07 479.8) rotate(-82.92)" style="fill:#d19386"/><path d="M344.64,349.79a10.33,10.33,0,0,0,13.18,12.41c16.6-5.6,31.83-23.64,36-40.08,4.56-18-5.52-28.44-21.39-34.68a10.34,10.34,0,0,0-13.78,7.11Z" style="fill:#d19386"/><path d="M359,327s6.85-28.1,26-11" style="fill:none;stroke:#353535;stroke-linecap:round;stroke-miterlimit:10;stroke-width:8px"/><path d="M370,155.7s-10.5,88.8,60.5,143.8" style="fill:none;stroke:#f8b44e;stroke-linecap:round;stroke-miterlimit:10;stroke-width:15px"/><path d="M112.88,100.83l-25.59.91c-.94,0-1.81-1.62-2.08-4L83.74,85c-.35-3.09.48-6,1.72-6.06l27.62-1c1.24,0,2.28,2.81,2.14,5.92l-.55,12.91C114.57,99.08,113.82,100.8,112.88,100.83Z" style="fill:#f4e9a2"/><path d="M110.21,115.84l-19.2.68c-.7,0-1.33-.7-1.51-1.72l-1-5.63c-.23-1.36.42-2.65,1.36-2.69l20.71-.73c.93,0,1.68,1.21,1.54,2.58L111.6,114C111.49,115.05,110.91,115.81,110.21,115.84Z" style="fill:#f4e9a2"/><circle cx="98.63" cy="60.25" r="25.27" style="fill:#f4e9a2"/><path d="M68.67,132.41l-14.34,7c-.53.25-1.44-.47-2.18-1.73l-4.07-6.94c-1-1.67-1.25-3.55-.55-3.89L63,119.31c.7-.34,2,1,2.72,2.83l2.93,7.49C69.2,131,69.2,132.15,68.67,132.41Z" style="fill:#f4e9a2"/><path d="M70.94,141.63l-10.76,5.22c-.4.2-.94,0-1.3-.59l-2-3c-.47-.71-.42-1.61.1-1.87l11.61-5.64c.53-.25,1.26.27,1.53,1.08l1.12,3.38C71.47,140.86,71.33,141.44,70.94,141.63Z" style="fill:#f4e9a2"/><circle cx="50.33" cy="112.89" r="15.74" style="fill:#f4e9a2"/><circle cx="193" cy="350" r="6" style="fill:none;stroke:#353535;stroke-linecap:round;stroke-miterlimit:10;stroke-width:6px"/></svg>