<svg id="Layer_1" data-name="Layer 1" xmlns="http://www.w3.org/2000/svg" viewBox="0 0 402 351"><path d="M65.87,246.4c-1.29,8-7.8,12.12-11.42,7.07-7.81-10.88-11-32.89-8.29-49.63,2.94-18.31,12-24.63,23-25,4-.14,6.71,5.2,5.72,11.34Z" style="fill:#d19386"/><path d="M171.07,208.61,38.57,103.75c-16.47-13-10.82-39.3,9.55-44.41L216.44,17.13a25.33,25.33,0,0,1,22.92,5.59L369.42,137.59c15.74,13.91,8.68,39.83-11.94,43.83L191.6,213.61A25.29,25.29,0,0,1,171.07,208.61Z" style="fill:#474443"/><path d="M75,126,53.76,243.46a72,72,0,0,0,60.11,82.19l80.47,12.48a72,72,0,0,0,53.55-13l17.29-12.65a72,72,0,0,0,28.64-47.07L303,188" style="fill:#e9ad9b"/><circle cx="373.5" cy="229.5" r="15.5" style="fill:#f8b44e"/><path d="M123.23,193.79a5,5,0,0,1-.9,8.87A50.33,50.33,0,0,1,100,206a50.35,50.35,0,0,1-21.21-7.74,5,5,0,0,1,.9-8.87A50.33,50.33,0,0,1,102,186.05,50.35,50.35,0,0,1,123.23,193.79Z" style="fill:#d19386"/><path d="M213.23,202.79a5,5,0,0,1-.9,8.87A50.33,50.33,0,0,1,190,215a50.35,50.35,0,0,1-21.21-7.74,5,5,0,0,1,.9-8.87A50.33,50.33,0,0,1,192,195.05,50.35,50.35,0,0,1,213.23,202.79Z" style="fill:#d19386"/><path d="M122.23,200.79a5,5,0,0,1-.9,8.87A50.33,50.33,0,0,1,99,213a50.35,50.35,0,0,1-21.21-7.74,5,5,0,0,1,.9-8.87A50.33,50.33,0,0,1,101,193.05,50.35,50.35,0,0,1,122.23,200.79Z" style="fill:#fff"/><path d="M212.23,210.79a5,5,0,0,1-.9,8.87A50.33,50.33,0,0,1,189,223a50.35,50.35,0,0,1-21.21-7.74,5,5,0,0,1,.9-8.87A50.33,50.33,0,0,1,191,203.05,50.35,50.35,0,0,1,212.23,210.79Z" style="fill:#fff"/><circle cx="100" cy="203" r="5" style="fill:#353535"/><path d="M291.88,206h0a456.7,456.7,0,0,0-214-33.77l-2.92.25a15.57,15.57,0,0,1-16.67-17.9L67,98.73A15.57,15.57,0,0,1,81.6,85.57l25.29-1.2a456.61,456.61,0,0,1,178.7,27.35l26.28,9.62a15.56,15.56,0,0,1,10,17L313.26,194A15.56,15.56,0,0,1,291.88,206Z" style="fill:#757475"/><circle cx="190" cy="213" r="5" style="fill:#353535"/><path d="M193.44,167.46s20-2.24,30.71,6.64" style="fill:none;stroke:#353535;stroke-linecap:round;stroke-miterlimit:10;stroke-width:8px"/><path d="M154,274s-35,10-42.53-5.16" style="fill:none;stroke:#353535;stroke-linecap:round;stroke-miterlimit:10;stroke-width:8px"/><path d="M138,291.77s-13.66,3.91-16.6-2" style="fill:none;stroke:#353535;stroke-linecap:round;stroke-miterlimit:10;stroke-width:6px"/><path d="M162.86,281.67s-7.63-12-2.79-16.49" style="fill:none;stroke:#353535;stroke-linecap:round;stroke-miterlimit:10;stroke-width:6px"/><path d="M82,163s16-9,33.15.1" style="fill:none;stroke:#353535;stroke-linecap:round;stroke-miterlimit:10;stroke-width:8px"/><ellipse cx="133" cy="249" rx="10" ry="18" transform="translate(-130.49 350.3) rotate(-82.92)" style="fill:#d19386"/><path d="M278.64,276.79a10.33,10.33,0,0,0,13.18,12.41c16.6-5.6,31.83-23.64,36-40.08,4.56-18-5.52-28.44-21.39-34.68a10.34,10.34,0,0,0-13.78,7.11Z" style="fill:#d19386"/><path d="M293,254s6.85-28.1,26-11" style="fill:none;stroke:#353535;stroke-linecap:round;stroke-miterlimit:10;stroke-width:8px"/><path d="M304,82.7s-10.5,88.8,60.5,143.8" style="fill:none;stroke:#f8b44e;stroke-linecap:round;stroke-miterlimit:10;stroke-width:15px"/></svg>