<svg id="Layer_1" data-name="Layer 1" xmlns="http://www.w3.org/2000/svg" xmlns:xlink="http://www.w3.org/1999/xlink" viewBox="0 0 608 660"><defs><linearGradient id="linear-gradient" x1="246.28" y1="344.88" x2="461.72" y2="344.88" gradientUnits="userSpaceOnUse"><stop offset="0" stop-color="#f8b44e"/><stop offset="1" stop-color="#aaa600"/></linearGradient><linearGradient id="linear-gradient-2" x1="94.78" y1="224" x2="179.22" y2="224" gradientUnits="userSpaceOnUse"><stop offset="0" stop-color="#f8b44e"/><stop offset="1" stop-color="#a29b00"/></linearGradient><linearGradient id="linear-gradient-3" x1="531.76" y1="889.89" x2="616.69" y2="889.89" gradientTransform="translate(406.15 -590.3) rotate(29.47)" xlink:href="#linear-gradient-2"/></defs><ellipse cx="346" cy="604" rx="161" ry="34" style="opacity:0.12"/><path d="M246,334.06l-82.63-9.19a20.63,20.63,0,0,1-16.23-11.38l-1.65-3.41-45.37-93.76a30.78,30.78,0,1,1,56.72-23.64l34.63,98.24-17.87-14.79L253,300.94a17,17,0,0,1-7,33.12Z" style="fill:#e9ad9b"/><path d="M436.66,538.24,252.17,527.38a34.33,34.33,0,0,1-31.78-40.27l28.43-160.27a34.33,34.33,0,0,1,35.82-28.28l146.63,8.64a34.34,34.34,0,0,1,32.26,32.28L473,502A34.32,34.32,0,0,1,436.66,538.24Z" style="fill:#e9ad9b"/><polygon points="338.39 501.3 322.75 598.7 236.25 598.26 221.61 500.7 338.39 501.3" style="fill:#e9ad9b"/><polygon points="472.39 501.3 456.75 598.7 370.25 598.26 355.61 500.7 472.39 501.3" style="fill:#e9ad9b"/><path d="M452,315.38l70.68,60.11a21.78,21.78,0,0,1,6.41,23.9l-1.26,3.49-31.15,86.8a30.79,30.79,0,0,1-58-20.79,31.72,31.72,0,0,1,1.54-3.57l41.85-82.19,5.15,27.38L428,339.18A17,17,0,0,1,452,315.38Z" style="fill:#e9ad9b"/><polygon points="356.03 497.43 338.93 578.33 232.07 577.67 215.97 496.57 356.03 497.43" style="fill:#565656"/><polygon points="356.03 497 339.43 550 232.57 550 215.97 497 356.03 497" style="fill:#d86868"/><polygon points="480.03 497.43 462.93 578.33 356.07 577.67 339.97 496.57 480.03 497.43" style="fill:#565656"/><path d="M265,300.43l70.71,68.64-15.51-3,125-54.36a7.51,7.51,0,0,1,6.56,13.5l-120,64.64-.17.09a12.28,12.28,0,0,1-15.34-3.05L254,310.57A7.52,7.52,0,0,1,265,300.43Z" style="fill:url(#linear-gradient)"/><ellipse cx="358.89" cy="294.86" rx="55.7" ry="99.97" transform="translate(22.05 614.68) rotate(-82.92)" style="opacity:0.12"/><path d="M255.87,249.4c-1.29,8-7.8,12.12-11.42,7.07-7.81-10.88-11-32.89-8.29-49.63,2.94-18.31,12-24.63,23-25,4-.14,6.71,5.2,5.72,11.34Z" style="fill:#d19386"/><path d="M361.07,211.61,228.57,106.75c-16.47-13-10.82-39.3,9.55-44.41L406.44,20.13a25.33,25.33,0,0,1,22.92,5.59L559.42,140.59c15.74,13.91,8.68,39.83-11.94,43.83L381.6,216.61A25.29,25.29,0,0,1,361.07,211.61Z" style="fill:#474443"/><path d="M265,129,243.76,246.46a72,72,0,0,0,60.11,82.19l80.47,12.48a72,72,0,0,0,53.55-13l17.29-12.65a72,72,0,0,0,28.64-47.07L493,191" style="fill:#e9ad9b"/><circle cx="563.5" cy="232.5" r="15.5" style="fill:#f8b44e"/><path d="M313.23,196.79a5,5,0,0,1-.9,8.87,46,46,0,0,1-43.56-4.45,5,5,0,0,1,.9-8.87,46,46,0,0,1,43.56,4.45Z" style="fill:#d19386"/><path d="M403.23,205.79a5,5,0,0,1-.9,8.87,46,46,0,0,1-43.56-4.45,5,5,0,0,1,.9-8.87,46,46,0,0,1,43.56,4.45Z" style="fill:#d19386"/><path d="M312.23,203.79a5,5,0,0,1-.9,8.87,46,46,0,0,1-43.56-4.45,5,5,0,0,1,.9-8.87,46,46,0,0,1,43.56,4.45Z" style="fill:#fff"/><path d="M402.23,213.79a5,5,0,0,1-.9,8.87,46,46,0,0,1-43.56-4.45,5,5,0,0,1,.9-8.87,46,46,0,0,1,43.56,4.45Z" style="fill:#fff"/><circle cx="289" cy="206" r="5" style="fill:#353535"/><path d="M481.88,209h0a456.7,456.7,0,0,0-214-33.77l-2.92.25a15.57,15.57,0,0,1-16.67-17.9L257,101.73A15.57,15.57,0,0,1,271.6,88.57l25.29-1.2a456.61,456.61,0,0,1,178.7,27.35l26.28,9.62a15.56,15.56,0,0,1,10,17L503.26,197A15.56,15.56,0,0,1,481.88,209Z" style="fill:#757475"/><circle cx="380" cy="215" r="5" style="fill:#353535"/><path d="M377.21,176.78s20.12,1.35,29.05,12" style="fill:none;stroke:#353535;stroke-linecap:round;stroke-miterlimit:10;stroke-width:8px"/><path d="M272,173s15.85-13.1,33-4" style="fill:none;stroke:#353535;stroke-linecap:round;stroke-miterlimit:10;stroke-width:8px"/><ellipse cx="323" cy="252" rx="10" ry="18" transform="translate(33.12 541.48) rotate(-82.92)" style="fill:#d19386"/><path d="M468.64,279.79a10.33,10.33,0,0,0,13.18,12.41c16.6-5.6,31.83-23.64,36-40.08,4.56-18-5.52-28.44-21.39-34.68a10.34,10.34,0,0,0-13.78,7.11Z" style="fill:#d19386"/><path d="M483,257s6.85-28.1,26-11" style="fill:none;stroke:#353535;stroke-linecap:round;stroke-miterlimit:10;stroke-width:8px"/><circle cx="331.5" cy="377.5" r="27.5" style="fill:#f8b44e"/><path d="M336.39,360.64l1.61,6.41a4,4,0,0,0,3.59,3l6.6.44a4,4,0,0,1,1.85,7.34l-5.59,3.52a4,4,0,0,0-1.74,4.34l1.62,6.4a4,4,0,0,1-6.41,4l-5.07-4.23a4,4,0,0,0-4.67-.31l-5.59,3.52a4,4,0,0,1-5.81-4.85l2.46-6.13a4,4,0,0,0-1.15-4.54L313,375.34a4,4,0,0,1,2.81-7l6.59.44a4,4,0,0,0,4-2.49l2.46-6.13A4,4,0,0,1,336.39,360.64Z" style="fill:#d89a50"/><circle cx="331.5" cy="377.5" r="7.5" style="fill:#f8b44e"/><path d="M494,85.7s-10.5,88.8,60.5,143.8" style="fill:none;stroke:#f8b44e;stroke-linecap:round;stroke-miterlimit:10;stroke-width:15px"/><polygon points="479.03 497 462.43 550 355.57 550 338.97 497 479.03 497" style="fill:#d86868"/><polyline points="225.82 487 346.01 515.3 466.54 499.43" style="fill:none;stroke:#757475;stroke-linecap:round;stroke-linejoin:round;stroke-width:29px"/><polyline points="225.82 487 346.01 515.3 466.54 499.43" style="fill:none;stroke:#a5a5a5;stroke-linecap:round;stroke-linejoin:round;stroke-width:5px"/><ellipse cx="346" cy="519.5" rx="30.5" ry="49.9" transform="translate(-176.62 860.76) rotate(-89.48)" style="fill:#f8b44e"/><path d="M353.06,500.56l3.61,7c.95,1.83,3.7,3.09,6.83,3.12l12,.13c7,.08,9.83,5.57,4.14,8l-9.76,4.21c-2.55,1.09-3.63,3.07-2.69,4.9l3.61,7c2.1,4.08-5.55,7.38-11.17,4.81L350,535.36a11.15,11.15,0,0,0-8.49-.1l-9.76,4.21c-5.69,2.45-13.25-1-11-5.06l3.8-6.92c1-1.81,0-3.81-2.56-5l-9.64-4.41c-5.62-2.58-2.64-8,4.35-7.94l12,.13c3.13,0,5.92-1.16,6.91-3l3.8-6.93C341.55,496.37,351,496.47,353.06,500.56Z" style="fill:#d89a50"/><ellipse cx="346" cy="519.5" rx="8.32" ry="13.61" transform="translate(-176.62 860.76) rotate(-89.48)" style="fill:#f8b44e"/><path d="M248.5,308.5c19.05,17.95,44.33,52.87,52,91,13.86,68.91-35.3,111.22-13,141,23,30.74,105.6,26,129-11a45.41,45.41,0,0,0,6-15" style="fill:none;stroke:#ffc06c;stroke-linecap:round;stroke-miterlimit:10;stroke-width:15px"/><rect x="227" y="592.52" width="96" height="11.48" rx="5.74" style="fill:#e9ad9b"/><rect x="361" y="591.52" width="96" height="11.48" rx="5.74" style="fill:#e9ad9b"/><path d="M335.81,278.06c-6.45,5.38-19.1,5.39-25.93.76-5.9-4-10.54,6.8-4.68,10.78,10,6.77,27.2,6.39,36.54-1.4C347.17,283.68,341.28,273.5,335.81,278.06Z" style="fill:#eaeaea"/><path d="M344,277s-35,10-42.53-5.16" style="fill:none;stroke:#353535;stroke-linecap:round;stroke-miterlimit:10;stroke-width:8px"/><path d="M344,278c5,12-29,26-44,12" style="fill:none;stroke:#353535;stroke-linecap:round;stroke-miterlimit:10;stroke-width:6px"/><line x1="166" y1="217" x2="108" y2="231" style="fill:none;stroke-linecap:round;stroke-linejoin:round;stroke-width:26.4315549664183px;stroke:url(#linear-gradient-2)"/><path d="M494.71,491.19c-3.33-8.78-16.5-2.51-13.19,6.22a41.75,41.75,0,0,1,.07,29.22c-3.16,8.83,10.56,13.78,13.72,4.93A57.39,57.39,0,0,0,494.71,491.19Z" style="fill:#e9ad9b"/><path d="M481.92,501.82c-.43-9.32-14.8-7.46-14.36,1.81a41.38,41.38,0,0,1-8.94,27.59c-5.7,7.37,5.73,16.27,11.44,8.89A57,57,0,0,0,481.92,501.82Z" style="fill:#e9ad9b"/><path d="M466.6,502.27c1-10.16-14.81-10.46-15.83-.36a45.29,45.29,0,0,1-14.11,28.42c-7.36,7,3.57,18.51,10.94,11.45A62.33,62.33,0,0,0,466.6,502.27Z" style="fill:#e9ad9b"/><path d="M455.67,496.6c2.88-8.47-10.59-11.85-13.45-3.43a39.71,39.71,0,0,1-17.65,21.5c-7.67,4.57-.6,16.51,7.09,11.93A54.67,54.67,0,0,0,455.67,496.6Z" style="fill:#e9ad9b"/><path d="M440.45,475.21a99.65,99.65,0,0,0-23.86,18c-5.12,5.18,6.08,13.74,11.16,8.59-10.29,10.42-.57-4,21.63-15.9C456,482.33,447,471.69,440.45,475.21Z" style="fill:#e9ad9b"/><circle cx="467" cy="475" r="30" style="fill:#e9ad9b"/><line x1="439.19" y1="458.92" x2="497.31" y2="474.99" style="fill:none;stroke-linecap:round;stroke-linejoin:round;stroke-width:26.4315549664183px;stroke:url(#linear-gradient-3)"/><rect x="77.89" y="126.44" width="80.06" height="125.68" rx="21.8" transform="translate(41.4 -20.19) rotate(11.85)" style="fill:#353535"/><rect x="77.89" y="126.44" width="80.06" height="125.68" rx="21.8" transform="translate(41.4 -20.19) rotate(11.85)" style="fill:#353535"/><rect x="89.66" y="143.51" width="57.99" height="84.51" rx="15.22" transform="translate(40.69 -20.41) rotate(11.85)" style="fill:#6b6b6b"/><path d="M101.61,89.41a1.56,1.56,0,0,1-1.06-.62,1.45,1.45,0,0,1-.34-1.09l.07-.63a2.65,2.65,0,0,1,.16-.63,15.08,15.08,0,0,1,2.6-4.32,26.17,26.17,0,0,1,3.67-3.54q2-1.6,3.91-2.94a21.94,21.94,0,0,0,3.2-2.68,5.22,5.22,0,0,0,1.54-2.67A3.93,3.93,0,0,0,115,68a3.89,3.89,0,0,0-1.42-1.59,5.27,5.27,0,0,0-2.21-.76,6,6,0,0,0-4.28.72,7.37,7.37,0,0,0-2.39,3,3.91,3.91,0,0,1-1,1.32,2.59,2.59,0,0,1-1.9.33L89.55,69.51a1.78,1.78,0,0,1-1.23-.8A2.34,2.34,0,0,1,87.93,67a15,15,0,0,1,2.36-6,18,18,0,0,1,5.2-5.12,22.49,22.49,0,0,1,8-3.21,32.82,32.82,0,0,1,10.81-.23,31.38,31.38,0,0,1,10.38,2.82,17.78,17.78,0,0,1,6,4.66,14,14,0,0,1,2.69,5.3,11.84,11.84,0,0,1,.3,4.72,12.89,12.89,0,0,1-1.52,4.81,18.26,18.26,0,0,1-2.86,3.81q-1.67,1.68-3.46,3.2t-3.44,3a23,23,0,0,0-2.88,3.08,7,7,0,0,1-.45.7,5.31,5.31,0,0,0-.46.79,9.26,9.26,0,0,1-1.36,1.53,1.92,1.92,0,0,1-1.54.37Zm-1.81,18.5a2,2,0,0,1-1.4-.78,2,2,0,0,1-.41-1.54l1.34-10.81a2.12,2.12,0,0,1,.78-1.44,1.94,1.94,0,0,1,1.55-.45l12.4,1.54a2,2,0,0,1,1.35.81,2.1,2.1,0,0,1,.45,1.59l-1.34,10.81a2,2,0,0,1-.82,1.39,2.06,2.06,0,0,1-1.5.42Z" style="fill:#33c494"/><path d="M69.83,112a1,1,0,0,1-.79,0,.91.91,0,0,1-.54-.51l-.16-.38a1.82,1.82,0,0,1-.11-.4,9.7,9.7,0,0,1,.08-3.27,17.94,17.94,0,0,1,.93-3.17c.42-1,.84-2,1.27-2.91a14.34,14.34,0,0,0,.95-2.53,3.4,3.4,0,0,0,0-2,2.51,2.51,0,0,0-.9-1.17,2.58,2.58,0,0,0-1.31-.45,3.51,3.51,0,0,0-1.49.28,3.89,3.89,0,0,0-2.18,1.78,4.76,4.76,0,0,0-.4,2.44,2.46,2.46,0,0,1-.17,1.08,1.61,1.61,0,0,1-1,.79l-7.39,3.07a1.14,1.14,0,0,1-1-.06,1.51,1.51,0,0,1-.78-.86,9.85,9.85,0,0,1-.59-4.14A11.65,11.65,0,0,1,55.64,95a14.75,14.75,0,0,1,3.48-4.37,21.34,21.34,0,0,1,6-3.58,20.53,20.53,0,0,1,6.76-1.74,11.54,11.54,0,0,1,4.88.71A9,9,0,0,1,80,88.14a7.72,7.72,0,0,1,1.68,2.56,8.37,8.37,0,0,1,.68,3.2A12,12,0,0,1,82,97c-.27,1-.57,2-.93,2.92s-.68,1.87-1,2.77a14.58,14.58,0,0,0-.64,2.65,4.93,4.93,0,0,1,0,.55,3.75,3.75,0,0,0,0,.59,6.43,6.43,0,0,1-.27,1.3,1.27,1.27,0,0,1-.75.7Zm4.9,11a1.27,1.27,0,0,1-1,0,1.33,1.33,0,0,1-.73-.74l-2.7-6.53a1.39,1.39,0,0,1,0-1.06,1.28,1.28,0,0,1,.73-.75l7.48-3.1a1.32,1.32,0,0,1,1,0,1.37,1.37,0,0,1,.76.75L83,118.1a1.24,1.24,0,0,1,0,1.05,1.29,1.29,0,0,1-.71.72Z" style="fill:#2da87c"/></svg>