<svg id="Layer_1" data-name="Layer 1" xmlns="http://www.w3.org/2000/svg" xmlns:xlink="http://www.w3.org/1999/xlink" viewBox="0 0 510 660"><defs><linearGradient id="linear-gradient" x1="148.28" y1="344.88" x2="363.72" y2="344.88" gradientUnits="userSpaceOnUse"><stop offset="0" stop-color="#f8b44e"/><stop offset="1" stop-color="#aaa600"/></linearGradient><linearGradient id="linear-gradient-2" x1="74.78" y1="230.5" x2="147.22" y2="230.5" gradientUnits="userSpaceOnUse"><stop offset="0" stop-color="#f8b44e"/><stop offset="1" stop-color="#a29b00"/></linearGradient><linearGradient id="linear-gradient-3" x1="360.26" y1="610.44" x2="445.19" y2="610.44" gradientTransform="translate(319.97 -262.63) rotate(29.47)" xlink:href="#linear-gradient-2"/></defs><ellipse cx="248" cy="604" rx="161" ry="34" style="opacity:0.12"/><path d="M148,334.06l-82.63-9.19a23.25,23.25,0,0,1-18-33.8l1.74-3.28,52-99a30.77,30.77,0,0,1,54.48,28.62,31.36,31.36,0,0,1-1.64,2.76l-62,93L75.62,276.13,155,300.94a17,17,0,0,1-7,33.12Z" style="fill:#e9ad9b"/><path d="M110.84,183.89c.87,8.8,14.37,6.33,13.5-2.42a39.17,39.17,0,0,1,7.08-26.54c5-7.25-6.21-15.1-11.25-7.83A53.9,53.9,0,0,0,110.84,183.89Z" style="fill:#e9ad9b"/><path d="M122.24,175.93c-3,8.75,10.88,12.36,13.91,3.66a41.11,41.11,0,0,1,18.46-22.12c8-4.68.75-17.1-7.25-12.42A56.65,56.65,0,0,0,122.24,175.93Z" style="fill:#e9ad9b"/><path d="M136.88,175.73c-6.32,7.23,5.66,16.08,11.94,8.9a42.56,42.56,0,0,1,26.3-14.1c9.48-1.4,7.35-16.14-2.15-14.73A58.61,58.61,0,0,0,136.88,175.73Z" style="fill:#e9ad9b"/><path d="M338.66,538.24,154.17,527.38a34.33,34.33,0,0,1-31.78-40.27l28.43-160.27a34.33,34.33,0,0,1,35.82-28.28l146.63,8.64a34.34,34.34,0,0,1,32.26,32.28L375,502A34.32,34.32,0,0,1,338.66,538.24Z" style="fill:#e9ad9b"/><polygon points="240.39 501.3 224.75 598.7 138.25 598.26 123.61 500.7 240.39 501.3" style="fill:#e9ad9b"/><polygon points="374.39 501.3 358.75 598.7 272.25 598.26 257.61 500.7 374.39 501.3" style="fill:#e9ad9b"/><path d="M354,315.38l70.68,60.11a21.78,21.78,0,0,1,6.41,23.9l-1.26,3.49-31.15,86.8a30.79,30.79,0,0,1-58-20.79,31.72,31.72,0,0,1,1.54-3.57l41.85-82.19,5.15,27.38L330,339.18A17,17,0,0,1,354,315.38Z" style="fill:#e9ad9b"/><polygon points="258.03 497.43 240.93 578.33 134.07 577.67 117.97 496.57 258.03 497.43" style="fill:#565656"/><polygon points="258.03 497 241.43 550 134.57 550 117.97 497 258.03 497" style="fill:#d86868"/><polygon points="382.03 497.43 364.93 578.33 258.07 577.67 241.97 496.57 382.03 497.43" style="fill:#565656"/><path d="M167,300.43l70.71,68.64-15.51-3,125-54.36a7.51,7.51,0,0,1,6.56,13.5l-120,64.64-.17.09a12.28,12.28,0,0,1-15.34-3.05L156,310.57A7.52,7.52,0,0,1,167,300.43Z" style="fill:url(#linear-gradient)"/><ellipse cx="260.89" cy="294.86" rx="55.7" ry="99.97" transform="translate(-63.87 517.43) rotate(-82.92)" style="opacity:0.12"/><path d="M157.87,249.4c-1.29,8-7.8,12.12-11.42,7.07-7.81-10.88-11-32.89-8.29-49.63,2.94-18.31,12-24.63,23-25,4-.14,6.71,5.2,5.72,11.34Z" style="fill:#d19386"/><path d="M263.07,211.61,130.57,106.75c-16.47-13-10.82-39.3,9.55-44.41L308.44,20.13a25.33,25.33,0,0,1,22.92,5.59L461.42,140.59c15.74,13.91,8.68,39.83-11.94,43.83L283.6,216.61A25.29,25.29,0,0,1,263.07,211.61Z" style="fill:#474443"/><path d="M167,129,145.76,246.46a72,72,0,0,0,60.11,82.19l80.47,12.48a72,72,0,0,0,53.55-13l17.29-12.65a72,72,0,0,0,28.64-47.07L395,191" style="fill:#e9ad9b"/><circle cx="465.5" cy="232.5" r="15.5" style="fill:#f8b44e"/><path d="M215.23,196.79a5,5,0,0,1-.9,8.87A50.33,50.33,0,0,1,192,209a50.35,50.35,0,0,1-21.21-7.74,5,5,0,0,1,.9-8.87A50.33,50.33,0,0,1,194,189.05,50.35,50.35,0,0,1,215.23,196.79Z" style="fill:#d19386"/><path d="M305.23,205.79a5,5,0,0,1-.9,8.87,46,46,0,0,1-43.56-4.45,5,5,0,0,1,.9-8.87,46,46,0,0,1,43.56,4.45Z" style="fill:#d19386"/><path d="M214.23,203.79a5,5,0,0,1-.9,8.87A50.33,50.33,0,0,1,191,216a50.35,50.35,0,0,1-21.21-7.74,5,5,0,0,1,.9-8.87A50.33,50.33,0,0,1,193,196.05,50.35,50.35,0,0,1,214.23,203.79Z" style="fill:#fff"/><path d="M304.23,213.79a5,5,0,0,1-.9,8.87,46,46,0,0,1-43.56-4.45,5,5,0,0,1,.9-8.87,46,46,0,0,1,43.56,4.45Z" style="fill:#fff"/><circle cx="191" cy="206" r="5" style="fill:#353535"/><path d="M383.88,209h0a456.7,456.7,0,0,0-214-33.77l-2.92.25a15.57,15.57,0,0,1-16.67-17.9L159,101.73A15.57,15.57,0,0,1,173.6,88.57l25.29-1.2a456.61,456.61,0,0,1,178.7,27.35l26.28,9.62a15.56,15.56,0,0,1,10,17L405.26,197A15.56,15.56,0,0,1,383.88,209Z" style="fill:#757475"/><circle cx="282" cy="215" r="5" style="fill:#353535"/><path d="M308.4,188.15s-20.11-1.34-29-12" style="fill:none;stroke:#353535;stroke-linecap:round;stroke-miterlimit:10;stroke-width:8px"/><path d="M203.31,169.81s-16,9-33.14-.09" style="fill:none;stroke:#353535;stroke-linecap:round;stroke-miterlimit:10;stroke-width:8px"/><ellipse cx="225" cy="252" rx="10" ry="18" transform="translate(-52.81 444.23) rotate(-82.92)" style="fill:#d19386"/><path d="M370.64,279.79a10.33,10.33,0,0,0,13.18,12.41c16.6-5.6,31.83-23.64,36-40.08,4.56-18-5.52-28.44-21.39-34.68a10.34,10.34,0,0,0-13.78,7.11Z" style="fill:#d19386"/><path d="M385,257s6.85-28.1,26-11" style="fill:none;stroke:#353535;stroke-linecap:round;stroke-miterlimit:10;stroke-width:8px"/><circle cx="233.5" cy="377.5" r="27.5" style="fill:#f8b44e"/><path d="M238.39,360.64l1.61,6.41a4,4,0,0,0,3.59,3l6.6.44a4,4,0,0,1,1.85,7.34l-5.59,3.52a4,4,0,0,0-1.74,4.34l1.62,6.4a4,4,0,0,1-6.41,4l-5.07-4.23a4,4,0,0,0-4.67-.31l-5.59,3.52a4,4,0,0,1-5.81-4.85l2.46-6.13a4,4,0,0,0-1.15-4.54L215,375.34a4,4,0,0,1,2.81-7l6.59.44a4,4,0,0,0,4-2.49l2.46-6.13A4,4,0,0,1,238.39,360.64Z" style="fill:#d89a50"/><circle cx="233.5" cy="377.5" r="7.5" style="fill:#f8b44e"/><path d="M396,85.7s-10.5,88.8,60.5,143.8" style="fill:none;stroke:#f8b44e;stroke-linecap:round;stroke-miterlimit:10;stroke-width:15px"/><polygon points="381.03 497 364.43 550 257.57 550 240.97 497 381.03 497" style="fill:#d86868"/><polyline points="127.82 487 248.01 515.3 368.54 499.43" style="fill:none;stroke:#757475;stroke-linecap:round;stroke-linejoin:round;stroke-width:29px"/><polyline points="127.82 487 248.01 515.3 368.54 499.43" style="fill:none;stroke:#a5a5a5;stroke-linecap:round;stroke-linejoin:round;stroke-width:5px"/><ellipse cx="248" cy="519.5" rx="30.5" ry="49.9" transform="translate(-273.73 762.77) rotate(-89.48)" style="fill:#f8b44e"/><path d="M255.06,500.56l3.61,7c.95,1.83,3.7,3.09,6.83,3.12l12,.13c7,.08,9.83,5.57,4.14,8l-9.76,4.21c-2.55,1.09-3.63,3.07-2.69,4.9l3.61,7c2.1,4.08-5.55,7.38-11.17,4.81L252,535.36a11.15,11.15,0,0,0-8.49-.1l-9.76,4.21c-5.69,2.45-13.25-1-11-5.06l3.8-6.92c1-1.81,0-3.81-2.56-5l-9.64-4.41c-5.62-2.58-2.64-8,4.35-7.94l12,.13c3.13,0,5.92-1.16,6.91-3l3.8-6.93C243.55,496.37,253,496.47,255.06,500.56Z" style="fill:#d89a50"/><ellipse cx="248" cy="519.5" rx="8.32" ry="13.61" transform="translate(-273.73 762.77) rotate(-89.48)" style="fill:#f8b44e"/><path d="M150.5,308.5c19.05,17.95,44.33,52.87,52,91,13.86,68.91-35.3,111.22-13,141,23,30.74,105.6,26,129-11a45.41,45.41,0,0,0,6-15" style="fill:none;stroke:#ffc06c;stroke-linecap:round;stroke-miterlimit:10;stroke-width:15px"/><rect x="129" y="592.52" width="96" height="11.48" rx="5.74" style="fill:#e9ad9b"/><rect x="263" y="591.52" width="96" height="11.48" rx="5.74" style="fill:#e9ad9b"/><path d="M237.81,278.06c-6.45,5.38-19.1,5.39-25.93.76-5.9-4-10.54,6.8-4.68,10.78,10,6.77,27.2,6.39,36.54-1.4C249.17,283.68,243.28,273.5,237.81,278.06Z" style="fill:#eaeaea"/><path d="M108.26,325.11l-42.53-.17a21.9,21.9,0,0,1-19.35-32l2.71-5.15,52-99a30.77,30.77,0,0,1,54.48,28.62,31.36,31.36,0,0,1-1.64,2.76l-62,93L75.27,276.06l39.47,15.83a17.23,17.23,0,0,1-6.48,33.22Z" style="fill:#e9ad9b"/><path d="M246,277s-35,10-42.53-5.16" style="fill:none;stroke:#353535;stroke-linecap:round;stroke-miterlimit:10;stroke-width:8px"/><path d="M246,278c5,12-29,26-44,12" style="fill:none;stroke:#353535;stroke-linecap:round;stroke-miterlimit:10;stroke-width:6px"/><line x1="134" y1="243" x2="88" y2="218" style="fill:none;stroke-linecap:round;stroke-linejoin:round;stroke-width:26.4315549664183px;stroke:url(#linear-gradient-2)"/><path d="M396.71,491.19c-3.33-8.78-16.5-2.51-13.19,6.22a41.75,41.75,0,0,1,.07,29.22c-3.16,8.83,10.56,13.78,13.72,4.93A57.39,57.39,0,0,0,396.71,491.19Z" style="fill:#e9ad9b"/><path d="M383.92,501.82c-.43-9.32-14.8-7.46-14.36,1.81a41.38,41.38,0,0,1-8.94,27.59c-5.7,7.37,5.73,16.27,11.44,8.89A57,57,0,0,0,383.92,501.82Z" style="fill:#e9ad9b"/><path d="M368.6,502.27c1-10.16-14.81-10.46-15.83-.36a45.29,45.29,0,0,1-14.11,28.42c-7.36,7,3.57,18.51,10.94,11.45A62.33,62.33,0,0,0,368.6,502.27Z" style="fill:#e9ad9b"/><path d="M357.67,496.6c2.88-8.47-10.59-11.85-13.45-3.43a39.71,39.71,0,0,1-17.65,21.5c-7.67,4.57-.6,16.51,7.09,11.93A54.67,54.67,0,0,0,357.67,496.6Z" style="fill:#e9ad9b"/><path d="M342.45,475.21a99.65,99.65,0,0,0-23.86,18c-5.12,5.18,6.08,13.74,11.16,8.59-10.29,10.42-.57-4,21.63-15.9C358,482.33,349,471.69,342.45,475.21Z" style="fill:#e9ad9b"/><circle cx="369" cy="475" r="30" style="fill:#e9ad9b"/><line x1="341.19" y1="458.92" x2="399.31" y2="474.99" style="fill:none;stroke-linecap:round;stroke-linejoin:round;stroke-width:26.4315549664183px;stroke:url(#linear-gradient-3)"/></svg>