<svg width="112" height="173" viewBox="0 0 112 173" fill="none" xmlns="http://www.w3.org/2000/svg">
<path d="M11.876 136.16H8.87141C6.35144 136.16 4.30859 138.203 4.30859 140.723V163.8C4.30859 166.32 6.35144 168.363 8.87141 168.363H11.876C14.396 168.363 16.4389 166.32 16.4389 163.8V140.723C16.4389 138.203 14.396 136.16 11.876 136.16Z" fill="#191D2B"/>
<path d="M100.421 168.363H103.425C105.945 168.363 107.988 166.32 107.988 163.8V140.723C107.988 138.203 105.945 136.16 103.425 136.16H100.421C97.9009 136.16 95.858 138.203 95.858 140.723V163.8C95.858 166.32 97.9009 168.363 100.421 168.363Z" fill="#191D2B"/>
<path d="M2.8623 24.5384L13.2601 38.4011V22.6614L2.8623 24.5384Z" fill="#B92D51"/>
<path d="M109.434 24.5384L99.0366 38.4011V22.6614L109.434 24.5384Z" fill="#B92D51"/>
<path d="M81.2754 7.93089L76.3674 2.01369C75.9612 1.51892 75.4504 1.12023 74.8718 0.846277C74.2932 0.572319 73.6611 0.429884 73.0209 0.429201H39.2765C38.6371 0.428686 38.0054 0.56959 37.4269 0.841818C36.8483 1.11405 36.3372 1.51086 35.93 2.00383L31.022 7.92103L81.2754 7.93089Z" fill="#B92D51"/>
<path d="M101.203 23.8153L96.6959 169.309C96.6652 170.291 96.2548 171.223 95.5509 171.909C94.847 172.594 93.9045 172.98 92.922 172.985H19.391C18.4056 172.984 17.459 172.6 16.7516 171.914C16.0442 171.229 15.6314 170.294 15.6007 169.309L11.0938 23.8153H101.203Z" fill="#D03656"/>
<path d="M27.7539 24.3938L29.322 35.745C29.3318 35.8059 29.3629 35.8614 29.4099 35.9014C29.4569 35.9415 29.5166 35.9635 29.5784 35.9635C29.6401 35.9635 29.6998 35.9415 29.7468 35.9014C29.7938 35.8614 29.825 35.8059 29.8348 35.745L31.4028 24.3938H27.7539Z" fill="#B92D51"/>
<path d="M54.2729 24.3938L55.8377 35.745C55.8449 35.8084 55.8752 35.8669 55.9228 35.9095C55.9704 35.952 56.0319 35.9755 56.0958 35.9755C56.1596 35.9755 56.2212 35.952 56.2688 35.9095C56.3164 35.8669 56.3467 35.8084 56.3538 35.745L57.9186 24.3938H54.2729Z" fill="#B92D51"/>
<path d="M80.7886 24.3938L82.3533 35.745C82.3605 35.8084 82.3908 35.8669 82.4384 35.9095C82.486 35.952 82.5476 35.9755 82.6114 35.9755C82.6752 35.9755 82.7368 35.952 82.7844 35.9095C82.832 35.8669 82.8623 35.8084 82.8695 35.745L84.4343 24.3938H80.7886Z" fill="#B92D51"/>
<path d="M109.865 18.1807C109.865 18.1807 108.3 10.4719 101.318 7.23391C100.659 6.92956 99.9425 6.77251 99.2172 6.77369H13.0891C12.3637 6.77251 11.6469 6.92956 10.9885 7.23391C4.00289 10.4719 2.44141 18.1807 2.44141 18.1807H109.865Z" fill="#D03656"/>
<path d="M110.44 16.8856H1.85319C1.37389 16.8856 0.985352 17.2742 0.985352 17.7535V23.96C0.985352 24.4393 1.37389 24.8278 1.85319 24.8278H110.44C110.92 24.8278 111.308 24.4393 111.308 23.96V17.7535C111.308 17.2742 110.92 16.8856 110.44 16.8856Z" fill="#EA4559"/>
</svg>
