<svg width="111" height="173" viewBox="0 0 111 173" fill="none" xmlns="http://www.w3.org/2000/svg">
<path d="M11.0206 136.119H8.01594C5.49597 136.119 3.45312 138.161 3.45312 140.681V163.759C3.45312 166.279 5.49597 168.321 8.01594 168.321H11.0206C13.5405 168.321 15.5834 166.279 15.5834 163.759V140.681C15.5834 138.161 13.5405 136.119 11.0206 136.119Z" fill="#191D2B"/>
<path d="M99.5649 168.321H102.57C105.089 168.321 107.132 166.278 107.132 163.758V140.681C107.132 138.161 105.089 136.119 102.57 136.119H99.5649C97.0449 136.119 95.0021 138.161 95.0021 140.681V163.758C95.0021 166.278 97.0449 168.321 99.5649 168.321Z" fill="#191D2B"/>
<path d="M2.00977 24.4939L12.4043 38.3566V22.6168L2.00977 24.4939Z" fill="#364DA3"/>
<path d="M108.578 24.4939L98.1807 38.3566V22.6168L108.578 24.4939Z" fill="#364DA3"/>
<path d="M80.4195 7.8896L75.5115 1.95268C75.1042 1.46066 74.5934 1.06447 74.0156 0.792306C73.4377 0.520144 72.807 0.378704 72.1683 0.378052H38.4205C37.7812 0.378221 37.1498 0.519427 36.5714 0.791607C35.9929 1.06379 35.4817 1.46023 35.074 1.95268L30.166 7.8896H80.4195Z" fill="#364DA3"/>
<path d="M100.357 23.774L95.8504 169.268C95.8196 170.253 95.4068 171.187 94.6992 171.872C93.9917 172.557 93.0452 172.941 92.0601 172.94H18.5356C17.5506 172.941 16.604 172.557 15.8965 171.872C15.189 171.187 14.7761 170.253 14.7453 169.268L10.2417 23.774H100.357Z" fill="#4158C1"/>
<path d="M26.8984 24.3492L28.4665 35.7037C28.4737 35.7671 28.5039 35.8257 28.5515 35.8682C28.5991 35.9107 28.6607 35.9342 28.7245 35.9342C28.7884 35.9342 28.85 35.9107 28.8976 35.8682C28.9452 35.8257 28.9754 35.7671 28.9826 35.7037L30.5474 24.3492H26.8984Z" fill="#364DA3"/>
<path d="M53.417 24.3492L54.9818 35.7037C54.9889 35.7671 55.0192 35.8257 55.0668 35.8682C55.1144 35.9107 55.176 35.9342 55.2398 35.9342C55.3037 35.9342 55.3652 35.9107 55.4128 35.8682C55.4604 35.8257 55.4907 35.7671 55.4979 35.7037L57.0627 24.3492H53.417Z" fill="#364DA3"/>
<path d="M79.9331 24.3492L81.4979 35.7037C81.505 35.7671 81.5353 35.8257 81.5829 35.8682C81.6305 35.9107 81.6921 35.9342 81.7559 35.9342C81.8198 35.9342 81.8813 35.9107 81.9289 35.8682C81.9765 35.8257 82.0068 35.7671 82.014 35.7037L83.582 24.3492H79.9331Z" fill="#364DA3"/>
<path d="M109.013 18.1396C109.013 18.1396 107.445 10.4341 100.466 7.19606C99.8075 6.89037 99.0906 6.73218 98.365 6.73254H12.2369C11.5102 6.73255 10.7924 6.89071 10.133 7.19606C3.14742 10.4341 1.58594 18.1396 1.58594 18.1396H109.013Z" fill="#4158C1"/>
<path d="M109.588 16.8411H1.00067C0.521369 16.8411 0.132812 17.2296 0.132812 17.7089V23.9154C0.132812 24.3947 0.521369 24.7833 1.00067 24.7833H109.588C110.067 24.7833 110.456 24.3947 110.456 23.9154V17.7089C110.456 17.2296 110.067 16.8411 109.588 16.8411Z" fill="#4F6CDA"/>
</svg>
