<svg width="111" height="173" viewBox="0 0 111 173" fill="none" xmlns="http://www.w3.org/2000/svg">
<path d="M11.3011 135.782H8.29659C5.77668 135.782 3.73389 137.825 3.73389 140.345V163.422C3.73389 165.941 5.77668 167.984 8.29659 167.984H11.3011C13.821 167.984 15.8638 165.941 15.8638 163.422V140.345C15.8638 137.825 13.821 135.782 11.3011 135.782Z" fill="#191D2B"/>
<path d="M99.8439 167.981H102.848C105.368 167.981 107.411 165.938 107.411 163.418V140.342C107.411 137.822 105.368 135.779 102.848 135.779H99.8439C97.324 135.779 95.2812 137.822 95.2812 140.342V163.418C95.2812 165.938 97.324 167.981 99.8439 167.981Z" fill="#191D2B"/>
<path d="M2.2915 24.1607L12.6858 38.023V22.2837L2.2915 24.1607Z" fill="#3FA86B"/>
<path d="M108.858 24.1607L98.46 38.023V22.2837L108.858 24.1607Z" fill="#3FA86B"/>
<path d="M80.6994 7.55652L75.7915 1.61317C75.3843 1.12116 74.8735 0.724976 74.2957 0.452821C73.7178 0.180666 73.0871 0.0392263 72.4484 0.0385742H38.7015C38.0623 0.0387431 37.4309 0.179946 36.8525 0.452118C36.274 0.724291 35.7628 1.12073 35.3551 1.61317L30.4473 7.54994L80.6994 7.55652Z" fill="#3FA86B"/>
<path d="M100.626 23.4406L96.1194 168.934C96.0887 169.919 95.6758 170.853 94.9683 171.538C94.2608 172.223 93.3143 172.606 92.3292 172.606H18.833C17.8451 172.611 16.8944 172.23 16.1834 171.544C15.4723 170.858 15.0572 169.921 15.0264 168.934L10.5195 23.4406H100.626Z" fill="#4ABA7D"/>
<path d="M27.1792 24.016L28.7472 35.3701C28.7544 35.4336 28.7847 35.4921 28.8323 35.5346C28.8798 35.5772 28.9414 35.6006 29.0053 35.6006C29.0691 35.6006 29.1307 35.5772 29.1783 35.5346C29.2259 35.4921 29.2561 35.4336 29.2633 35.3701L30.828 24.016H27.1792Z" fill="#3FA86B"/>
<path d="M53.6973 24.016L55.262 35.3701C55.2692 35.4336 55.2994 35.4921 55.347 35.5346C55.3946 35.5772 55.4562 35.6006 55.52 35.6006C55.5839 35.6006 55.6455 35.5772 55.693 35.5346C55.7406 35.4921 55.7709 35.4336 55.7781 35.3701L57.3428 24.016H53.6973Z" fill="#3FA86B"/>
<path d="M80.2119 24.016L81.7766 35.3701C81.7838 35.4336 81.8141 35.4921 81.8617 35.5346C81.9093 35.5772 81.9709 35.6006 82.0347 35.6006C82.0985 35.6006 82.1601 35.5772 82.2077 35.5346C82.2553 35.4921 82.2856 35.4336 82.2927 35.3701L83.8608 24.016H80.2119Z" fill="#3FA86B"/>
<path d="M109.292 17.8064C109.292 17.8064 107.724 10.1011 100.745 6.86315C100.087 6.55748 99.3698 6.39929 98.6442 6.39966H12.5184C11.7917 6.39924 11.0737 6.55741 10.4145 6.86315C3.42912 10.1011 1.86768 17.8064 1.86768 17.8064H109.292Z" fill="#4ABA7D"/>
<path d="M109.867 16.5079H1.28238C0.803088 16.5079 0.414551 16.8965 0.414551 17.3758V23.5821C0.414551 24.0614 0.803088 24.4499 1.28238 24.4499H109.867C110.346 24.4499 110.735 24.0614 110.735 23.5821V17.3758C110.735 16.8965 110.346 16.5079 109.867 16.5079Z" fill="#5CD08D"/>
</svg>
