<svg width="112" height="173" viewBox="0 0 112 173" fill="none" xmlns="http://www.w3.org/2000/svg">
<path d="M11.6251 135.778H8.62043C6.10046 135.778 4.05762 137.821 4.05762 140.341V163.418C4.05762 165.938 6.10046 167.981 8.62043 167.981H11.6251C14.145 167.981 16.1879 165.938 16.1879 163.418V140.341C16.1879 137.821 14.145 135.778 11.6251 135.778Z" fill="#191D2B"/>
<path d="M100.169 167.978H103.174C105.694 167.978 107.737 165.935 107.737 163.415V140.338C107.737 137.818 105.694 135.775 103.174 135.775H100.169C97.6494 135.775 95.6066 137.818 95.6066 140.338V163.415C95.6066 165.935 97.6494 167.978 100.169 167.978Z" fill="#191D2B"/>
<path d="M2.61426 24.1536L13.0088 38.0162V22.2765L2.61426 24.1536Z" fill="#999999"/>
<path d="M109.183 24.1536L98.7852 38.0162V22.2765L109.183 24.1536Z" fill="#999999"/>
<path d="M81.024 7.54926L76.116 1.60576C75.7087 1.11374 75.1979 0.717545 74.6201 0.445383C74.0422 0.17322 73.4115 0.0317801 72.7727 0.0311279H39.025C38.3857 0.0312968 37.7543 0.172506 37.1759 0.444685C36.5974 0.716865 36.0861 1.11331 35.6785 1.60576L30.7705 7.54268L81.024 7.54926Z" fill="#999999"/>
<path d="M100.951 23.4336L96.4444 168.931C96.4137 169.915 96.0008 170.849 95.2933 171.535C94.5858 172.22 93.6392 172.603 92.6541 172.603H19.1559C18.168 172.608 17.2173 172.226 16.5063 171.541C15.7952 170.855 15.3801 169.918 15.3492 168.931L10.8423 23.4336H100.951Z" fill="#B2B2B2"/>
<path d="M27.5029 24.0089L29.071 35.3634C29.0782 35.4268 29.1084 35.4853 29.156 35.5279C29.2036 35.5704 29.2652 35.5939 29.329 35.5939C29.3929 35.5939 29.4545 35.5704 29.5021 35.5279C29.5497 35.4853 29.5799 35.4268 29.5871 35.3634L31.1519 24.0089H27.5029Z" fill="#999999"/>
<path d="M54.0215 24.0089L55.5863 35.3634C55.5934 35.4268 55.6237 35.4853 55.6713 35.5279C55.7189 35.5704 55.7805 35.5939 55.8443 35.5939C55.9081 35.5939 55.9697 35.5704 56.0173 35.5279C56.0649 35.4853 56.0952 35.4268 56.1024 35.3634L57.6671 24.0089H54.0215Z" fill="#999999"/>
<path d="M80.5371 24.0089L82.1019 35.3634C82.1091 35.4268 82.1393 35.4853 82.1869 35.5279C82.2345 35.5704 82.2961 35.5939 82.3599 35.5939C82.4238 35.5939 82.4853 35.5704 82.5329 35.5279C82.5805 35.4853 82.6108 35.4268 82.618 35.3634L84.186 24.0089H80.5371Z" fill="#999999"/>
<path d="M109.617 17.7991C109.617 17.7991 108.049 10.0936 101.07 6.85561C100.412 6.54992 99.6951 6.39173 98.9695 6.39209H12.8414C12.1147 6.39167 11.3967 6.54986 10.7375 6.85561C3.75191 10.0936 2.19043 17.7991 2.19043 17.7991H109.617Z" fill="#B7B7B7"/>
<path d="M110.192 16.5006H1.60516C1.12586 16.5006 0.737305 16.8892 0.737305 17.3685V23.5749C0.737305 24.0543 1.12586 24.4428 1.60516 24.4428H110.192C110.672 24.4428 111.06 24.0543 111.06 23.5749V17.3685C111.06 16.8892 110.672 16.5006 110.192 16.5006Z" fill="#D1D1D1"/>
</svg>
