<svg width="111" height="173" viewBox="0 0 111 173" fill="none" xmlns="http://www.w3.org/2000/svg">
<path d="M11.4468 135.74H8.44221C5.92224 135.74 3.87939 137.783 3.87939 140.303V163.38C3.87939 165.9 5.92224 167.943 8.44221 167.943H11.4468C13.9668 167.943 16.0097 165.9 16.0097 163.38V140.303C16.0097 137.783 13.9668 135.74 11.4468 135.74Z" fill="#191D2B"/>
<path d="M99.9911 167.94H102.996C105.516 167.94 107.559 165.897 107.559 163.377V140.3C107.559 137.78 105.516 135.737 102.996 135.737H99.9911C97.4712 135.737 95.4283 137.78 95.4283 140.3V163.377C95.4283 165.897 97.4712 167.94 99.9911 167.94Z" fill="#191D2B"/>
<path d="M2.43604 24.1158L12.8306 37.9785V22.2388L2.43604 24.1158Z" fill="#D0B02C"/>
<path d="M109.005 24.1158L98.6069 37.9785V22.2388L109.005 24.1158Z" fill="#D0B02C"/>
<path d="M80.8454 7.50826L75.9374 1.57462C75.5304 1.08225 75.0197 0.68582 74.4418 0.413625C73.8639 0.141431 73.233 0.000197466 72.5942 0H38.8464C38.2071 0.000168861 37.5757 0.141376 36.9973 0.413555C36.4188 0.685734 35.9075 1.08218 35.4999 1.57462L30.5952 7.50826H80.8454Z" fill="#D0B02C"/>
<path d="M100.773 23.3926L96.2663 168.89C96.2355 169.875 95.8222 170.809 95.114 171.495C94.4058 172.18 93.4584 172.563 92.4727 172.562H18.9614C17.9766 172.561 17.0305 172.178 16.3232 171.493C15.6158 170.808 15.2027 169.874 15.1711 168.89L10.6675 23.3926H100.773Z" fill="#DEC832"/>
<path d="M27.3242 23.9712L28.8923 35.3256C28.8995 35.3891 28.9298 35.4476 28.9774 35.4901C29.025 35.5327 29.0865 35.5562 29.1503 35.5562C29.2142 35.5562 29.2757 35.5327 29.3233 35.4901C29.3709 35.4476 29.4012 35.3891 29.4084 35.3256L30.9732 23.9712H27.3242Z" fill="#D0B02C"/>
<path d="M53.8433 23.9712L55.408 35.3256C55.4152 35.3891 55.4455 35.4476 55.4931 35.4901C55.5407 35.5327 55.6023 35.5562 55.6661 35.5562C55.7299 35.5562 55.7915 35.5327 55.8391 35.4901C55.8867 35.4476 55.917 35.3891 55.9241 35.3256L57.4889 23.9712H53.8433Z" fill="#D0B02C"/>
<path d="M80.3589 23.9712L81.9237 35.3256C81.9308 35.3891 81.9611 35.4476 82.0087 35.4901C82.0563 35.5327 82.1179 35.5562 82.1817 35.5562C82.2455 35.5562 82.3071 35.5327 82.3547 35.4901C82.4023 35.4476 82.4326 35.3891 82.4398 35.3256L84.0078 23.9712H80.3589Z" fill="#D0B02C"/>
<path d="M109.438 17.7614C109.438 17.7614 107.87 10.0559 100.891 6.81789C100.233 6.5122 99.5164 6.35401 98.7908 6.35437H12.6627C11.9361 6.35437 11.2181 6.51254 10.5588 6.81789C3.5732 10.0559 2.01172 17.7614 2.01172 17.7614H109.438Z" fill="#DEC832"/>
<path d="M110.014 16.4629H1.42694C0.947639 16.4629 0.559082 16.8514 0.559082 17.3308V23.5372C0.559082 24.0165 0.947639 24.4051 1.42694 24.4051H110.014C110.493 24.4051 110.882 24.0165 110.882 23.5372V17.3308C110.882 16.8514 110.493 16.4629 110.014 16.4629Z" fill="#F4D838"/>
</svg>
